PathFileType	4	(X/Y/Z)	./resultDataOpenSim/trcMotMarkerGrf/sub06/qtm-13-01.trc
DataRate	CameraRate	NumFrames	NumMarkers	Units	OrigDataRate	OrigDataStartFrame	OrigNumFrames
250.000000	250.000000	9	24	m	250.000000	415	553
Frame#	Time	L.Toe.Tip			R.Toe.Tip			L.Ankle.Lat			R.Ankle.Lat			L.Ankle.Med			R.Ankle.Med			L.Heel			R.Heel			L.Knee.Lat			R.Knee.Lat			L.Knee.Med			R.Knee.Med			L.Thigh.Upper			R.Thigh.Upper			L.ASIS			R.ASIS			V.Sacral			L.Acromium			R.Acromium			C7			L.Elbow			R.Elbow			L.Wrist.Lat			R.Wrist.Lat
		X1	Y1	Z1	X2	Y2	Z2	X3	Y3	Z3	X4	Y4	Z4	X5	Y5	Z5	X6	Y6	Z6	X7	Y7	Z7	X8	Y8	Z8	X9	Y9	Z9	X10	Y10	Z10	X11	Y11	Z11	X12	Y12	Z12	X13	Y13	Z13	X14	Y14	Z14	X15	Y15	Z15	X16	Y16	Z16	X17	Y17	Z17	X18	Y18	Z18	X19	Y19	Z19	X20	Y20	Z20	X21	Y21	Z21	X22	Y22	Z22	X23	Y23	Z23	X24	Y24	Z24

415	1.656	1.4990415	0.095503112	-0.10895657	0.86665591	0.03480861	0.048913573	1.3719693	0.083406428	-0.13140174	0.76277884	0.12015461	0.092500251	1.3688486	0.098461075	-0.048246647	0.79221421	0.13425153	0.0071125178	1.3144968	0.028252937	-0.087692367	0.70771909	0.13075569	0.035333083	1.2920683	0.44656607	-0.13197667	0.99378397	0.44377379	0.11572505	1.2629643	0.43808357	-0.010186466	0.97258492	0.44215929	-0.014560833	1.1491863	0.80955613	-0.18257295	1.0774368	0.79890234	0.15831621	1.2095853	0.85917048	-0.12652737	1.1851105	0.85014895	0.12163095	1.0119192	0.92420256	-0.017878866	1.1171351	1.3475219	-0.18670499	1.143514	1.3296677	0.16328912	1.0521243	1.3686337	-0.0035798897	0.96183958	1.0871949	-0.2275646	1.2631016	1.0241461	0.22027615	0.94888749	0.85976291	-0.31227225	1.4196225	1.1525295	0.065899559
416	1.66	1.5033306	0.092645432	-0.10695713	0.86688454	0.034714976	0.048950005	1.3764074	0.08125502	-0.13033092	0.7644338	0.12130725	0.092874555	1.3729746	0.096335292	-0.047241458	0.79401207	0.13512078	0.0075394908	1.3178195	0.02767056	-0.087064013	0.70953927	0.13273602	0.035605635	1.2986203	0.44564551	-0.13154733	0.99879092	0.44260983	0.1159731	1.2694269	0.43736415	-0.010011126	0.97788433	0.44081067	-0.014272034	1.1555913	0.80833151	-0.18289551	1.0831059	0.797512	0.15773048	1.2159997	0.85762206	-0.1269208	1.19097	0.84858989	0.12139951	1.0178626	0.92273468	-0.018246508	1.1228118	1.3459089	-0.18769006	1.1487044	1.3281738	0.16256065	1.0574016	1.367064	-0.00455323	0.96732387	1.0858905	-0.22798388	1.2677096	1.0223996	0.21973411	0.95293124	0.85863103	-0.31287249	1.4244328	1.150137	0.065016022
417	1.664	1.5073085	0.089308817	-0.10488834	0.86708984	0.03461636	0.04895169	1.3804901	0.078963254	-0.12932881	0.76612963	0.12249072	0.093281481	1.3767936	0.093970577	-0.046254833	0.79594537	0.13602078	0.0079808598	1.3204932	0.02749006	-0.086560759	0.71150902	0.1348061	0.035873863	1.3051742	0.44473337	-0.13112838	1.0039668	0.44138653	0.11628911	1.2758964	0.43661082	-0.0098553234	0.98335814	0.43943583	-0.013959874	1.1620406	0.80707883	-0.18320593	1.0887279	0.79610099	0.15717602	1.22245	0.85609183	-0.12730675	1.1968891	0.84704039	0.12117227	1.0238925	0.92122461	-0.018589872	1.128542	1.3442872	-0.18870375	1.1539017	1.3266649	0.16180969	1.0626963	1.3654823	-0.0055526791	0.97290638	1.0845379	-0.22844459	1.2721733	1.020624	0.21925227	0.95721085	0.85742118	-0.31346184	1.4292519	1.1475541	0.064192973
418	1.668	1.5110736	0.085075103	-0.10277671	0.86730732	0.034526881	0.048959775	1.3842682	0.076640516	-0.12841767	0.76784464	0.12371722	0.093715293	1.3803912	0.091425043	-0.045273102	0.79802851	0.13695552	0.0084426218	1.3225933	0.027618286	-0.086118117	0.71365033	0.1369565	0.036145137	1.3117171	0.44381099	-0.13071713	1.0093361	0.44009664	0.11666142	1.2823506	0.43580184	-0.0097086848	0.9890238	0.43804333	-0.013615824	1.1685451	0.80578529	-0.18350656	1.094248	0.7946199	0.15671569	1.2289276	0.854595	-0.12768226	1.2028654	0.84550359	0.12094875	1.0299795	0.9196972	-0.018931735	1.1343272	1.3426548	-0.18974099	1.1591153	1.325143	0.16102872	1.0680099	1.3638924	-0.0065912378	0.97858113	1.0831378	-0.22894992	1.2764626	1.0188529	0.21883702	0.96173006	0.85612933	-0.31403452	1.4340851	1.1447784	0.06342322
419	1.672	1.5146924	0.079472428	-0.10084483	0.86756454	0.03445395	0.049008582	1.387786	0.074482821	-0.12761207	0.76962282	0.12500363	0.094154366	1.3838638	0.08884589	-0.044320732	0.80028169	0.13792427	0.0089394248	1.324196	0.028059153	-0.085641377	0.7159857	0.13919215	0.036418466	1.3182548	0.44286544	-0.13029452	1.0149287	0.43873101	0.11706959	1.288778	0.43491464	-0.0095624572	0.99488846	0.43661602	-0.01320888	1.1751138	0.80443871	-0.18380044	1.0997482	0.79298071	0.15641069	1.2354216	0.85315026	-0.12803568	1.2088881	0.84398034	0.12072675	1.0360513	0.91819225	-0.019290891	1.1401642	1.3410142	-0.19080047	1.1643451	1.3236161	0.16021027	1.0733366	1.362303	-0.0076790623	0.98433999	1.081691	-0.22949293	1.2805771	1.0171184	0.21849104	0.9664929	0.85475319	-0.31459474	1.4389387	1.1418132	0.062695482
420	1.676	1.5181213	0.072444172	-0.099524136	0.86786517	0.034394889	0.049104155	1.3910394	0.072670669	-0.1269238	0.77155991	0.12636883	0.094597531	1.3872723	0.086409519	-0.04344649	0.80272796	0.13891898	0.0094839118	1.3254239	0.028815792	-0.085089257	0.71854071	0.14153196	0.036700676	1.3248153	0.44190772	-0.12982101	1.0207607	0.43728321	0.11750077	1.2951763	0.43393789	-0.0094223011	1.0009455	0.43512398	-0.012718366	1.1817489	0.80304165	-0.18410505	1.1056052	0.79107788	0.15617868	1.2419303	0.85177757	-0.12834558	1.2149464	0.84247275	0.12050592	1.0420367	0.91675773	-0.019660716	1.1460565	1.3393725	-0.19188549	1.1695835	1.3220958	0.15936057	1.0786587	1.3607456	-0.008821316	0.99017828	1.0802017	-0.23006565	1.2845723	1.0154195	0.21820474	0.97150658	0.8532929	-0.31515083	1.4438167	1.1386626	0.062008825
421	1.68	1.5211842	0.064712343	-0.099154087	0.86819947	0.034342306	0.049235354	1.3939453	0.071244965	-0.12637224	0.77373402	0.12782055	0.09507088	1.3905843	0.084246985	-0.042679812	0.80537963	0.13993769	0.010074029	1.3264508	0.029761181	-0.084509106	0.72135114	0.14399849	0.037010071	1.331459	0.44098334	-0.12925285	1.0268386	0.43575523	0.11795527	1.301556	0.4328845	-0.0093087087	1.0071911	0.43355031	-0.012164359	1.1884465	0.80163489	-0.18443859	1.1124986	0.7888621	0.15571201	1.2484548	0.85049377	-0.12859765	1.2210282	0.8409841	0.12027386	1.0479828	0.91542276	-0.020049716	1.1520147	1.3377391	-0.19300564	1.174826	1.3205937	0.15849596	1.0839605	1.3592706	-0.010022662	0.99609571	1.0786759	-0.23066798	1.2885267	1.0137039	0.21795678	0.9767747	0.85174824	-0.31570461	1.4487076	1.1353306	0.061375133
422	1.684	1.523693	0.057551555	-0.099625139	0.86856009	0.034290079	0.049391703	1.3964022	0.07011307	-0.1259761	0.7761827	0.12934981	0.095594052	1.3936857	0.082427064	-0.042007589	0.80822971	0.14099549	0.010689815	1.3274565	0.030720816	-0.0839966	0.72445862	0.14661342	0.037372376	1.3382911	0.44016669	-0.12857301	1.0331718	0.43415986	0.11844177	1.3079382	0.43179387	-0.0092443245	1.0136448	0.43189209	-0.011578255	1.1951974	0.80030549	-0.18479783	1.1208231	0.78640452	0.15473703	1.2549809	0.84930972	-0.1288007	1.2271053	0.83951341	0.1199992	1.0542372	0.91415292	-0.020560161	1.1580441	1.3361249	-0.19417133	1.180075	1.3191226	0.15763071	1.0892396	1.3579264	-0.011294031	1.0020918	1.0771168	-0.23130812	1.2924755	1.0119123	0.21772807	0.98229484	0.85011849	-0.31625069	1.453581	1.131828	0.06081124
423	1.688	1.5256383	0.052010409	-0.10044042	0.86894526	0.034233043	0.049562676	1.3984156	0.069179392	-0.12572315	0.77892665	0.13093759	0.096166546	1.3964412	0.080963885	-0.041392975	0.81126795	0.14211443	0.011305784	1.3285729	0.031616002	-0.083641817	0.72790968	0.14938886	0.037803047	1.3454544	0.43954264	-0.12781155	1.0397734	0.43251409	0.118972	1.3143424	0.43072496	-0.0092386276	1.0203487	0.43014265	-0.010953657	1.2019884	0.79916952	-0.1851689	1.1298473	0.78393679	0.15342034	1.2614805	0.84823408	-0.12897997	1.2331366	0.8380594	0.11965193	1.061489	0.91283324	-0.021395764	1.1641356	1.3345408	-0.1953822	1.1853326	1.3176986	0.15677906	1.0945013	1.3567475	-0.012656627	1.0081654	1.0755253	-0.23199216	1.2963818	1.0100387	0.21751385	0.98806346	0.84840764	-0.31678415	1.4584039	1.1281726	0.060333004
